<?xml version="1.0" encoding="utf-8"?>
<!-- Generator: Adobe Illustrator 24.3.0, SVG Export Plug-In . SVG Version: 6.00 Build 0)  -->
<svg version="1.1" id="Capa_1" xmlns="http://www.w3.org/2000/svg" xmlns:xlink="http://www.w3.org/1999/xlink" x="0px" y="0px"
	 viewBox="0 0 175.5 188.7" style="enable-background:new 0 0 175.5 188.7;" xml:space="preserve">
<style type="text/css">
	.st0{fill:#802428;}
	.st1{fill:#D8272E;}
	.st2{fill:#686968;}
</style>
<g>
	<polygon class="st0" points="150.9,66 116.2,31.3 58.2,31.3 122,94.8 59.2,157.4 117.3,157.5 150.9,123.1 150.9,66 	"/>
	<polygon class="st1" points="116.2,31.2 58.2,31.2 24.6,65.6 24.6,65.8 24.6,122.7 59.3,157.4 88.2,128.5 53.3,94.1 	"/>
	<path class="st2" d="M84.4,98.3c0,1.8-0.6,3.2-1.9,4.2c-1.3,1-3.2,1.4-5.7,1.4c-1.3,0-2.4-0.1-3.3-0.3c-0.9-0.2-1.8-0.4-2.6-0.8
		v-4.1c0.9,0.4,1.9,0.8,3.1,1.1c1.1,0.3,2.1,0.4,3,0.4c1.8,0,2.7-0.5,2.7-1.5c0-0.4-0.1-0.7-0.4-0.9c-0.2-0.2-0.6-0.5-1.2-0.8
		c-0.6-0.3-1.4-0.7-2.3-1.1c-1.4-0.6-2.4-1.1-3-1.6c-0.6-0.5-1.1-1.1-1.4-1.7c-0.3-0.6-0.4-1.4-0.4-2.4c0-1.6,0.6-2.8,1.9-3.7
		c1.2-0.9,3-1.3,5.3-1.3c2.2,0,4.3,0.5,6.3,1.4l-1.5,3.5c-0.9-0.4-1.7-0.7-2.5-0.9c-0.8-0.2-1.6-0.4-2.4-0.4c-1.4,0-2.2,0.4-2.2,1.2
		c0,0.4,0.2,0.8,0.7,1.1c0.5,0.3,1.5,0.8,3.1,1.4c1.4,0.6,2.4,1.1,3.1,1.6c0.7,0.5,1.1,1.1,1.4,1.7C84.3,96.6,84.4,97.4,84.4,98.3"
		/>
	<path class="st2" d="M104.3,103.6h-4.9V93.1c0-1.3-0.2-2.3-0.7-2.9c-0.5-0.6-1.2-1-2.2-1c-1.4,0-2.4,0.5-3,1.4
		c-0.6,0.9-0.9,2.4-0.9,4.6v8.5h-4.9v-18h3.7l0.7,2.3h0.3c0.5-0.9,1.3-1.5,2.3-2c1-0.4,2-0.7,3.3-0.7c2.1,0,3.7,0.6,4.8,1.7
		c1.1,1.1,1.6,2.8,1.6,4.9L104.3,103.6L104.3,103.6z"/>
</g>
</svg>
